<svg width="150" height="150" viewBox="0 0 150 150" fill="none" xmlns="http://www.w3.org/2000/svg">
<circle cx="75" cy="75" r="75" fill="black"/>
<path d="M76.2313 115.61C70.4047 115.61 65.1913 114.575 60.5913 112.505C55.9913 110.435 52.3497 107.33 49.6663 103.19C47.0597 98.9733 45.7563 93.7217 45.7563 87.435V85.02H55.3013V87.435C55.3013 94.105 57.2563 99.0883 61.1663 102.385C65.0763 105.605 70.098 107.215 76.2313 107.215C82.518 107.215 87.3097 105.797 90.6063 102.96C93.903 100.123 95.5513 96.5583 95.5513 92.265C95.5513 89.275 94.7847 86.8983 93.2513 85.135C91.7947 83.3717 89.7247 81.9533 87.0413 80.88C84.358 79.73 81.2147 78.7333 77.6113 77.89L71.6313 76.395C66.9547 75.1683 62.8147 73.6733 59.2113 71.91C55.608 70.1467 52.7713 67.8467 50.7013 65.01C48.708 62.0967 47.7113 58.3783 47.7113 53.855C47.7113 49.3317 48.823 45.4217 51.0463 42.125C53.3463 38.8283 56.528 36.2983 60.5913 34.535C64.7313 32.7717 69.4847 31.89 74.8513 31.89C80.2947 31.89 85.163 32.8483 89.4563 34.765C93.8263 36.605 97.238 39.365 99.6913 43.045C102.221 46.6483 103.486 51.21 103.486 56.73V61.56H93.9413V56.73C93.9413 52.82 93.098 49.6767 91.4113 47.3C89.8013 44.9233 87.5397 43.16 84.6263 42.01C81.7897 40.86 78.5313 40.285 74.8513 40.285C69.5613 40.285 65.3063 41.4733 62.0863 43.85C58.8663 46.15 57.2563 49.4467 57.2563 53.74C57.2563 56.5767 57.9463 58.8767 59.3263 60.64C60.7063 62.4033 62.6613 63.86 65.1913 65.01C67.7213 66.0833 70.7497 67.0417 74.2763 67.885L80.2563 69.38C84.933 70.3767 89.1113 71.7567 92.7913 73.52C96.548 75.2067 99.538 77.545 101.761 80.535C103.985 83.4483 105.096 87.2817 105.096 92.035C105.096 96.7883 103.908 100.928 101.531 104.455C99.1547 107.982 95.7813 110.742 91.4113 112.735C87.118 114.652 82.058 115.61 76.2313 115.61Z" fill="url(#paint0_linear_401_9)"/>
<defs>
<linearGradient id="paint0_linear_401_9" x1="25" y1="28" x2="150" y2="127" gradientUnits="userSpaceOnUse">
<stop stop-color="#7328C8"/>
<stop offset="0.526042" stop-color="#EE5A84"/>
<stop offset="1" stop-color="#F5CD76"/>
</linearGradient>
</defs>
</svg>
